<?xml version="1.0" standalone="no"?>
<!DOCTYPE svg PUBLIC "-//W3C//DTD SVG 20010904//EN"
 "http://www.w3.org/TR/2001/REC-SVG-20010904/DTD/svg10.dtd">
<svg version="1.0" xmlns="http://www.w3.org/2000/svg"
 width="181.000000pt" height="181.000000pt" viewBox="0 0 181.000000 181.000000"
 preserveAspectRatio="xMidYMid meet">

<g transform="translate(0.000000,181.000000) scale(0.100000,-0.100000)"
fill="#000000" stroke="none">
<path d="M199 1603 c-11 -12 -14 -55 -14 -175 0 -188 0 -188 102 -188 l63 0 0
-144 c0 -79 3 -151 6 -160 5 -14 28 -16 150 -16 l144 0 0 -45 c0 -50 -9 -55
-48 -24 -29 23 -67 19 -89 -9 -18 -24 -16 -46 8 -76 24 -31 59 -34 84 -6 30
33 42 24 47 -32 7 -68 31 -88 104 -88 l55 0 -3 -122 -3 -123 -109 -3 c-71 -2
-113 1 -122 9 -9 7 -14 32 -14 70 0 55 -2 59 -30 74 -22 11 -63 15 -165 15
-131 0 -137 -1 -160 -25 -24 -23 -25 -29 -25 -164 0 -77 4 -151 10 -165 l10
-26 168 0 c117 0 172 4 180 12 7 7 12 39 12 73 0 34 5 66 12 73 8 8 53 12 138
12 85 0 130 4 138 12 8 8 12 55 12 145 l0 133 55 0 55 0 0 -41 c0 -26 -7 -50
-20 -66 -47 -60 3 -124 75 -97 37 14 38 82 2 106 -6 3 -11 26 -11 50 l-1 43
52 5 c76 8 87 23 92 123 2 46 8 85 15 89 6 4 59 7 119 7 94 -1 109 -3 118 -20
5 -11 8 -74 7 -146 l-3 -128 -60 -5 c-89 -8 -105 -20 -105 -79 0 -31 5 -53 15
-61 19 -16 19 -27 0 -46 -19 -19 -21 -164 -3 -182 8 -8 62 -12 179 -12 143 0
168 2 173 16 3 9 6 87 6 174 0 187 -2 190 -102 190 l-58 0 0 154 c0 85 -3 161
-6 170 -5 14 -28 16 -151 16 l-144 0 3 33 c3 29 6 32 42 35 28 2 47 -3 67 -17
52 -38 109 -17 109 41 0 53 -61 75 -107 38 -25 -20 -67 -26 -97 -14 -11 4 -16
19 -16 46 0 56 -34 88 -93 88 -32 0 -47 5 -51 16 -8 20 -8 208 0 228 5 13 24
16 104 16 54 0 105 -3 114 -6 12 -5 16 -21 16 -69 0 -93 3 -95 191 -95 107 0
159 4 167 12 17 17 17 339 0 356 -8 8 -60 12 -169 12 -188 0 -189 0 -189 -95
0 -48 -4 -64 -16 -69 -9 -3 -69 -6 -134 -6 -98 0 -119 -3 -124 -16 -3 -9 -6
-76 -6 -150 l0 -134 -55 0 -55 0 0 45 c0 25 4 45 9 45 5 0 14 13 21 29 13 33
2 64 -30 81 -28 15 -38 13 -65 -15 -30 -29 -32 -54 -5 -83 13 -14 20 -35 20
-62 l0 -40 -55 0 c-46 0 -60 -4 -80 -25 -22 -21 -25 -33 -25 -95 l0 -70 -124
0 -124 0 -6 26 c-8 29 -6 206 1 235 5 16 15 19 68 19 81 0 100 18 91 87 -7 55
-7 57 0 174 8 122 12 119 -185 119 -135 0 -161 -2 -172 -17z m1376 -173 l0
-145 -134 -3 c-102 -2 -136 0 -142 10 -10 15 -12 248 -3 272 6 14 25 16 143
14 l136 -3 0 -145z m-467 -532 l2 -198 -22 -5 c-13 -3 -104 -4 -203 -3 l-180
3 -3 203 -2 202 202 -2 203 -3 3 -197z m-598 -532 l0 -133 -42 -6 c-24 -3 -83
-5 -133 -4 l-90 2 -3 138 -3 137 136 0 135 0 0 -134z"/>
<path d="M1342 1528 c-16 -16 -16 -180 0 -196 8 -8 45 -12 100 -12 104 0 108
4 108 110 0 106 -4 110 -108 110 -55 0 -92 -4 -100 -12z"/>
<path d="M754 1056 c-17 -13 -19 -27 -19 -160 0 -106 4 -149 13 -158 19 -19
285 -20 312 -1 18 13 20 26 20 158 0 117 -3 146 -16 159 -19 20 -54 20 -80 1
-25 -19 -48 -19 -64 0 -17 20 -138 21 -166 1z"/>
<path d="M270 461 c-13 -25 -13 -167 0 -192 9 -17 22 -19 105 -19 111 0 114 2
118 102 4 65 -6 107 -26 120 -7 4 -51 8 -99 8 -76 0 -89 -2 -98 -19z"/>
</g>
</svg>
