<?xml version="1.0" standalone="no"?>
<!DOCTYPE svg PUBLIC "-//W3C//DTD SVG 20010904//EN"
 "http://www.w3.org/TR/2001/REC-SVG-20010904/DTD/svg10.dtd">
<svg version="1.0" xmlns="http://www.w3.org/2000/svg"
 width="80.000000pt" height="80.000000pt" viewBox="0 0 80.000000 80.000000"
 preserveAspectRatio="xMidYMid meet">
<metadata>
Created by potrace 1.16, written by Peter Selinger 2001-2019
</metadata>
<g transform="translate(0.000000,80.000000) scale(0.100000,-0.100000)"
fill="#000000" stroke="none">
<path d="M42 748 c-16 -16 -16 -150 0 -166 7 -7 27 -12 45 -12 l33 0 0 -80 0
-80 75 0 c75 0 75 0 75 -27 0 -21 -3 -24 -12 -15 -17 17 -58 15 -65 -4 -3 -8
2 -23 11 -32 13 -14 20 -14 36 -4 27 17 30 15 30 -11 0 -31 18 -47 52 -47 28
0 28 -1 28 -60 l0 -60 -64 0 -65 0 -3 37 -3 38 -78 3 c-50 2 -84 -1 -93 -9 -9
-8 -14 -33 -14 -79 0 -102 -2 -100 101 -100 l89 0 0 40 0 40 59 0 c90 0 91 1
91 81 l0 69 30 0 c25 0 30 -4 30 -25 0 -14 -4 -25 -10 -25 -5 0 -10 -11 -10
-24 0 -30 28 -42 49 -21 13 12 13 19 3 35 -19 30 -15 60 7 60 42 0 51 10 51
61 l0 49 65 0 65 0 0 -74 0 -75 -37 -3 -38 -3 -3 -92 -2 -93 90 0 c65 0 90 3
91 13 3 54 -1 159 -6 167 -3 5 -22 10 -41 10 l-34 0 0 85 0 85 -75 0 c-60 0
-75 3 -75 15 0 17 50 21 66 5 16 -16 44 0 44 25 0 25 -28 41 -44 25 -5 -5 -22
-10 -37 -10 -23 0 -28 5 -31 27 -2 22 -9 29 -33 33 -29 5 -30 7 -33 68 l-3 62
60 0 60 0 3 -37 3 -38 83 -3 c98 -3 99 -3 94 113 l-4 76 -86 -3 -87 -3 -3 -37
-3 -37 -67 -3 -67 -3 -5 -74 c-5 -69 -7 -75 -28 -76 -30 -2 -39 19 -21 51 11
21 10 27 -2 40 -18 17 -49 9 -49 -12 0 -8 5 -23 12 -33 13 -22 3 -55 -15 -48
-6 2 -22 1 -34 -4 -19 -7 -23 -16 -23 -49 l0 -40 -65 0 -65 0 0 69 0 70 38 3
37 3 2 50 c4 75 3 117 -3 127 -8 13 -158 10 -172 -4z m688 -83 l0 -75 -70 0
-70 0 0 75 0 75 70 0 70 0 0 -75z m-232 -267 l-3 -103 -100 0 -100 0 -3 103
-3 102 106 0 106 0 -3 -102z m-298 -268 l0 -70 -70 0 -70 0 0 70 0 70 70 0 70
0 0 -70z"/>
<path d="M312 397 l3 -82 80 0 80 0 3 81 3 81 -86 2 -86 1 3 -83z"/>
</g>
</svg>
